<svg aria-hidden="true" style="position: absolute; width: 0; height: 0; overflow: hidden;" version="1.1" xmlns="http://www.w3.org/2000/svg" xmlns:xlink="http://www.w3.org/1999/xlink">
<defs>
<symbol id="icon-facebook" viewBox="0 0 32 32">
<path d="M18.914 32v-14.4h4.372l0.714-6.4h-5.086v-3.117c0-1.648 0.042-3.283 2.345-3.283h2.332v-4.576c0-0.069-2.003-0.224-4.030-0.224-4.233 0-6.884 2.651-6.884 7.52v3.68h-4.677v6.4h4.677v14.4h6.237z"></path>
</symbol>
<symbol id="icon-linkedin" viewBox="0 0 32 32">
<path d="M7.282 31.264l-6.846-0v-20.598h6.846v20.598zM3.859 7.855v0h-0.045c-2.297 0-3.783-1.583-3.783-3.56 0-2.021 1.531-3.559 3.873-3.559s3.783 1.538 3.828 3.559c0 1.977-1.487 3.56-3.873 3.56zM11.070 31.264h6.847v-11.503c0-0.616 0.044-1.231 0.225-1.669 0.495-1.231 1.622-2.505 3.513-2.505 2.478 0 3.469 1.889 3.469 4.658v11.019h6.846v-11.811c0-6.327-3.377-9.271-7.882-9.271-3.693 0-5.315 2.065-6.215 3.471h0.045v-2.987h-6.847c0.090 1.933 0 20.598 0 20.598z"></path>
</symbol>
<symbol id="icon-youtube" viewBox="0 0 32 32">
<path d="M16.061 6.667c0.758 0.001 8.382 0.028 10.357 0.556 1.148 0.305 2.051 1.206 2.359 2.358 0.535 1.997 0.556 6.069 0.557 6.392v0.041c-0.001 0.324-0.022 4.408-0.557 6.405-0.308 1.153-1.211 2.053-2.359 2.358-2.037 0.545-10.086 0.556-10.407 0.556h-0.020c-0.321-0-8.372-0.011-10.41-0.556-1.147-0.305-2.051-1.206-2.357-2.358-0.534-1.997-0.555-6.081-0.556-6.405v-0.041c0.001-0.323 0.022-4.395 0.556-6.392 0.307-1.153 1.211-2.053 2.357-2.358 1.976-0.529 9.602-0.555 10.359-0.556zM13.272 12.059v7.883l6.971-3.948-6.971-3.935z"></path>
</symbol>
<symbol id="icon-instagram" viewBox="0 0 32 32">
<path d="M4.13 0.031h23.739c2.255 0 4.1 1.844 4.1 4.099v23.739c0 2.255-1.845 4.1-4.1 4.1h-23.739c-2.255 0-4.099-1.845-4.099-4.1v-23.739c0-2.255 1.844-4.099 4.099-4.099v0zM23.296 3.579c-0.791 0-1.438 0.647-1.438 1.438v3.442c0 0.791 0.647 1.438 1.438 1.438h3.61c0.791 0 1.438-0.647 1.438-1.438v-3.442c0-0.791-0.647-1.438-1.438-1.438h-3.61zM28.359 13.537h-2.811c0.266 0.869 0.409 1.788 0.409 2.741 0 5.312-4.444 9.619-9.927 9.619s-9.927-4.306-9.927-9.619c0-0.953 0.143-1.872 0.409-2.741h-2.933v13.491c0 0.699 0.571 1.27 1.269 1.27h22.24c0.698 0 1.269-0.572 1.269-1.27v-13.491h-0zM16.030 9.715c-3.542 0-6.414 2.783-6.414 6.215s2.872 6.215 6.414 6.215c3.543 0 6.415-2.783 6.415-6.215s-2.872-6.215-6.415-6.215z"></path>
</symbol>
</defs>
</svg>
